<svg width="50" height="51" viewBox="0 0 50 51" fill="none" xmlns="http://www.w3.org/2000/svg">
<path opacity="0.2" d="M49.2501 31.9435C45.911 45.3365 32.3454 53.4865 18.9509 50.1474C5.56261 46.8084 -2.58817 33.2427 0.75167 19.8505C4.08917 6.45601 17.654 -1.69556 31.0446 1.64351C44.4384 4.98257 52.5884 18.5498 49.2493 31.9435H49.2501Z" fill="black"/>
<path fill-rule="evenodd" clip-rule="evenodd" d="M32.5291 22.9907C32.8662 20.734 31.148 19.5209 28.7986 18.7116L29.5607 15.6546L27.6994 15.1909L26.9574 18.1673C26.4687 18.0454 25.9663 17.9304 25.467 17.8165L26.2143 14.8204L24.3546 14.3567L23.592 17.4126C23.187 17.3204 22.7895 17.2292 22.4037 17.1333L22.4058 17.1238L19.8396 16.483L19.3446 18.4705C19.3446 18.4705 20.7252 18.7869 20.6961 18.8065C21.4497 18.9946 21.5865 19.4933 21.5632 19.8887L20.695 23.3713C20.747 23.3845 20.8143 23.4036 20.8885 23.4333L20.6924 23.3845L19.475 28.2631C19.3828 28.492 19.1491 28.8355 18.6222 28.7051C18.6408 28.7321 17.2697 28.3675 17.2697 28.3675L16.3459 30.498L18.768 31.1017C19.0414 31.1702 19.3115 31.2407 19.5787 31.3104C19.7517 31.3555 19.9234 31.4003 20.094 31.4441L19.324 34.5365L21.1826 35.0003L21.9458 31.9412C22.453 32.079 22.9459 32.2062 23.4282 32.326L22.6682 35.3707L24.529 35.8345L25.299 32.7484C28.4721 33.3488 30.8586 33.1066 31.8619 30.2373C32.6712 27.9265 31.8221 26.5936 30.1527 25.7239C31.3685 25.4425 32.2843 24.6427 32.5286 22.9907H32.5291ZM28.2773 28.953C27.7491 31.0738 24.4287 30.1963 22.9109 29.7952C22.7749 29.7592 22.6535 29.7271 22.5498 29.7013L23.5716 25.6051C23.6983 25.6367 23.8532 25.6714 24.0287 25.7108C25.599 26.0632 28.817 26.7853 28.2779 28.953H28.2773ZM24.3439 23.8095C25.6104 24.1473 28.371 24.8838 28.852 22.9572C29.3436 20.9862 26.6592 20.3922 25.3481 20.102C25.2007 20.0694 25.0707 20.0407 24.9645 20.0142L24.0381 23.7294C24.1257 23.7513 24.2286 23.7787 24.3439 23.8095Z" fill="black"/>
</svg>
