<svg width="52" height="52" viewBox="0 0 52 52" fill="none" xmlns="http://www.w3.org/2000/svg">
<path d="M20.676 51.313C20.9169 51.2482 21.1621 51.2092 21.4087 51.1965" stroke="#7F7F7F" stroke-width="0.75" stroke-linecap="round" stroke-linejoin="round"/>
<path d="M48.6159 8.58369L7.37175 1.53844C6.09146 1.31974 4.90828 2.40874 4.72903 3.97077L1.32461 33.638C1.14536 35.2001 2.03793 36.6436 3.31821 36.8623L44.5624 43.9076C45.8427 44.1263 47.0258 43.0373 47.2051 41.4753L50.6095 11.808C50.7888 10.246 49.8962 8.80238 48.6159 8.58369Z" fill="#391463" stroke="#391463" stroke-linecap="round" stroke-linejoin="round"/>
<path d="M48.682 8.33662L7.43779 1.29137C6.15751 1.07267 4.97432 2.16167 4.79507 3.7237L1.39065 33.391C1.2114 34.953 2.10397 36.3966 3.38425 36.6153L44.6284 43.6605C45.9087 43.8792 47.0919 42.7902 47.2711 41.2282L50.6756 11.5609C50.8548 9.99888 49.9622 8.55532 48.682 8.33662Z" fill="#391463"/>
<path d="M48.682 8.33662L7.43779 1.29137C6.15751 1.07267 4.97432 2.16167 4.79507 3.7237L1.39065 33.391C1.2114 34.953 2.10397 36.3966 3.38425 36.6153L44.6284 43.6605C45.9087 43.8792 47.0919 42.7902 47.2711 41.2282L50.6756 11.5609C50.8548 9.99888 49.9622 8.55532 48.682 8.33662Z" stroke="#391463" stroke-width="0.75" stroke-linecap="round" stroke-linejoin="round"/>
<path d="M24.7917 21.8379C25.1736 21.8379 25.5058 21.4894 25.7665 20.9478L49.0842 25.4134L49.7051 19.9175L26.3129 16.645C26.2636 16.0932 26.0648 15.5774 25.7479 15.1791C24.7669 14.13 21.2061 15.217 19.7376 15.7246L19.3216 15.6678C19.2839 15.5913 19.2368 15.5223 19.1819 15.4632L21.1098 3.62677L16.8257 2.89575L15.8353 14.8004C15.7454 14.8304 15.6603 14.8791 15.5839 14.9443L14.8388 14.7587C13.4294 13.7133 10.5205 11.7286 9.40287 12.3839C9.10834 12.5807 8.8652 12.8747 8.70126 13.2323L3.83966 12.0543L3.20325 17.5957L8.1704 18.2055C8.21327 18.4106 8.29645 18.5999 8.41275 18.7569C8.52905 18.914 8.67495 19.0341 8.83786 19.107C9.45875 19.3115 10.4491 19.1941 11.5232 19.0123C7.66437 21.7848 6.63058 28.0231 6.63058 28.0231L9.05206 26.5081L10.9147 29.5382C11.16 24.0953 13.8702 20.7357 15.3821 19.2736L12.9358 38.265L16.8163 38.9164L18.6325 19.5994H18.7287C19.8246 21.3758 21.9046 25.6596 20.8677 31.2237L23.3512 28.9511L25.335 31.2237C25.335 31.2237 25.7293 25.1369 22.8514 21.1674C23.463 21.5214 24.1188 21.748 24.7917 21.8379Z" fill="#391463"/>
<path d="M3.91965 11.3529L3.29565 16.7882L16.471 18.3639L49.1735 24.6287L49.7975 19.1896L16.9025 14.5876L3.91965 11.3529Z" fill="white" stroke="#391463" stroke-linecap="round" stroke-linejoin="round"/>
<path d="M12.2986 38.3975L16.1419 39.0565L18.2747 16.8154L20.5006 3.52068L16.263 2.79724L15.1795 16.2889L12.2986 38.3975Z" fill="white" stroke="#391463" stroke-linecap="round" stroke-linejoin="round"/>
<path d="M15.8968 17.5238C15.8968 17.5238 10.8768 20.9782 10.5447 28.402L8.71302 25.4438L6.34741 26.9362C6.34741 26.9362 7.7289 18.5844 13.3045 17.0883L15.8968 17.5238Z" fill="white" stroke="#391463" stroke-linecap="round" stroke-linejoin="round"/>
<path d="M17.5957 17.813C17.5957 17.813 21.6315 22.8203 20.2904 30.0699L22.715 27.8351L24.6553 30.0661C24.6553 30.0661 25.2079 21.5703 20.1848 18.2561L17.5957 17.813Z" fill="white" stroke="#391463" stroke-linecap="round" stroke-linejoin="round"/>
<path d="M15.1624 14.5558C15.1624 14.5558 10.5399 10.7984 9.07456 11.6393C7.60926 12.4801 7.10012 17.745 8.50645 18.2184C9.91277 18.6919 13.5046 17.4041 15.0258 17.6654L15.1624 14.5558Z" fill="white" stroke="#391463" stroke-linecap="round" stroke-linejoin="round"/>
<path d="M8.33168 17.4983C8.38446 18.1611 9.96773 18.1914 11.1785 18.1157C12.0788 17.9604 13.0225 17.7634 13.8204 17.6763C11.8863 17.3013 8.26649 16.7029 8.33168 17.4983Z" fill="#999999" stroke="#391463" stroke-linecap="round" stroke-linejoin="round"/>
<path d="M18.5524 15.134C18.5524 15.134 23.8455 13.0697 25.0718 14.3765C26.298 15.6832 25.5964 20.9064 24.1404 20.8875C22.6844 20.8685 19.5179 18.4293 17.9905 18.1679L18.5524 15.134Z" fill="white" stroke="#391463" stroke-linecap="round" stroke-linejoin="round"/>
<path d="M24.4595 20.2508C24.2577 20.872 22.7272 20.3682 21.5816 19.8721C20.7496 19.4251 19.8866 18.9176 19.1384 18.5653C21.0818 18.8721 24.6923 19.5122 24.4595 20.2508Z" fill="#999999" stroke="#391463" stroke-linecap="round" stroke-linejoin="round"/>
<path d="M17.5521 18.8432L15.3324 18.4644C15.1344 18.4306 14.9541 18.3069 14.8275 18.118C14.7009 17.9292 14.6373 17.6891 14.6494 17.4455L14.7829 14.8813C14.7891 14.7471 14.8181 14.616 14.868 14.4962C14.918 14.3764 14.9878 14.2706 15.073 14.1855C15.1582 14.1004 15.2571 14.0378 15.3632 14.0017C15.4693 13.9657 15.5804 13.9569 15.6894 13.976L18.2227 14.4116C18.3313 14.4294 18.4357 14.4746 18.5293 14.5442C18.6229 14.6138 18.7037 14.7064 18.7664 14.816C18.8292 14.9257 18.8726 15.0501 18.8939 15.1813C18.9152 15.3125 18.9139 15.4477 18.8901 15.5782L18.4338 18.0857C18.3924 18.3245 18.2786 18.5354 18.115 18.6759C17.9514 18.8164 17.7503 18.8762 17.5521 18.8432Z" fill="white" stroke="#391463" stroke-linecap="round" stroke-linejoin="round"/>
<path d="M37.3128 37.607C36.7478 37.3645 36.5149 36.7661 36.6081 35.9745L36.6546 35.5616L37.4183 35.6942L37.3625 36.1714C37.3448 36.2412 37.3406 36.3149 37.3499 36.387C37.3593 36.459 37.3822 36.5275 37.4166 36.5871C37.4511 36.6468 37.4963 36.696 37.5488 36.7309C37.6013 36.7659 37.6597 36.7857 37.7195 36.7888C37.9771 36.8343 38.1572 36.6979 38.2038 36.2964C38.2503 35.8949 38.1448 35.4972 37.6605 34.8836C37.0737 34.1261 36.903 33.592 36.9806 32.9103C37.0706 32.1527 37.4183 31.6603 38.002 31.6035L38.0641 31.0581L38.7284 31.1717L38.6632 31.7209C39.222 31.9634 39.4518 32.5542 39.3617 33.3421L39.34 33.5201L38.5763 33.3913L38.6042 33.1489C38.6477 32.7701 38.5204 32.5656 38.2627 32.5239C38.0051 32.4823 37.8405 32.6224 37.7971 32.9898C37.7536 33.3572 37.8623 33.7473 38.3435 34.3647C38.9333 35.1223 39.1009 35.6563 39.0202 36.376C38.9271 37.1827 38.5639 37.6789 37.974 37.7244L37.8995 38.3493L37.2383 38.2357L37.3128 37.607Z" fill="#391463"/>
<path d="M39.5467 36.6059L39.6057 36.1135L40.3694 36.2461L40.3042 36.8105C40.2514 37.2574 40.3942 37.4468 40.6519 37.4922C40.9095 37.5377 41.0896 37.4013 41.1424 36.9544L41.3038 35.5454C41.3566 35.0984 41.2138 34.8977 40.9561 34.856C40.6984 34.8144 40.5184 34.9545 40.4656 35.4015V35.4545L39.7019 35.3257L40.2514 31.8411L42.3842 32.2198L42.2817 33.1175L40.8692 32.8751L40.6301 34.3599H40.6457C40.7333 34.2247 40.8498 34.1217 40.9824 34.0622C41.115 34.0027 41.2584 33.9891 41.3969 34.0228C41.993 34.125 42.2351 34.6856 42.1296 35.6098L41.9651 37.0302C41.8502 38.0339 41.3721 38.5452 40.5774 38.4013C39.7826 38.2574 39.4318 37.6135 39.5467 36.6059Z" fill="#391463"/>
<path d="M42.4518 37.1071L42.8337 33.8043C42.9485 32.8006 43.4546 32.2892 44.2431 32.4369C45.0316 32.5847 45.4042 33.221 45.2893 34.2285L44.9074 37.5276C44.7926 38.5313 44.2866 39.0426 43.498 38.8949C42.7095 38.7472 42.337 38.1109 42.4518 37.1071ZM44.091 37.4518L44.4852 34.0429C44.538 33.596 44.3952 33.399 44.1375 33.3535C43.8799 33.3081 43.6998 33.452 43.647 33.899L43.2528 37.3268C43.2031 37.7737 43.3428 37.9745 43.6005 38.0162C43.8581 38.0578 44.0413 37.8987 44.091 37.4518Z" fill="#391463"/>
</svg>
