<svg width="20" height="16" viewBox="0 0 20 16" fill="none" xmlns="http://www.w3.org/2000/svg">
<path d="M6.3999 0.799988H3.6999C2.82469 0.799988 1.98532 1.14767 1.36645 1.76654C0.74758 2.38541 0.399902 3.22477 0.399902 4.09999V6.79999H3.1215C2.85739 6.34245 2.75162 5.81056 2.82059 5.28679C2.88956 4.76302 3.12943 4.27664 3.50299 3.90308C3.87655 3.52952 4.36293 3.28965 4.8867 3.22068C5.41047 3.1517 5.94237 3.25747 6.3999 3.52159V0.799988ZM7.5999 5.59999V6.79999H8.7999C9.03724 6.79999 9.26925 6.72961 9.46659 6.59775C9.66393 6.46589 9.81773 6.27848 9.90856 6.05921C9.99938 5.83994 10.0231 5.59866 9.97684 5.36588C9.93054 5.1331 9.81625 4.91928 9.64843 4.75146C9.48061 4.58364 9.26679 4.46935 9.03401 4.42305C8.80123 4.37674 8.55995 4.40051 8.34068 4.49133C8.12141 4.58216 7.934 4.73596 7.80214 4.9333C7.67028 5.13064 7.5999 5.36265 7.5999 5.59999ZM10.8783 6.79999C11.1424 6.34245 11.2482 5.81056 11.1792 5.28679C11.1102 4.76302 10.8704 4.27664 10.4968 3.90308C10.1233 3.52952 9.63687 3.28965 9.1131 3.22068C8.58933 3.1517 8.05744 3.25747 7.5999 3.52159V0.799988H16.2999C17.1751 0.799988 18.0145 1.14767 18.6334 1.76654C19.2522 2.38541 19.5999 3.22477 19.5999 4.09999V6.79999H10.8783ZM8.4483 7.99999L10.4247 9.97519C10.5374 10.0879 10.6007 10.2407 10.6007 10.4C10.6007 10.5593 10.5374 10.7121 10.4247 10.8248C10.312 10.9375 10.1592 11.0007 9.9999 11.0007C9.84057 11.0007 9.68777 10.9375 9.5751 10.8248L7.5999 8.84839V15.2H16.2999C17.1751 15.2 18.0145 14.8523 18.6334 14.2334C19.2522 13.6146 19.5999 12.7752 19.5999 11.9V7.99999H8.4483ZM6.3999 15.2V8.84839L4.4247 10.8248C4.31204 10.9375 4.15923 11.0007 3.9999 11.0007C3.84057 11.0007 3.68777 10.9375 3.5751 10.8248C3.46244 10.7121 3.39914 10.5593 3.39914 10.4C3.39914 10.2407 3.46244 10.0879 3.5751 9.97519L5.5515 7.99999H0.399902V11.9C0.399902 12.7752 0.74758 13.6146 1.36645 14.2334C1.98532 14.8523 2.82469 15.2 3.6999 15.2H6.3999ZM6.3999 5.59999C6.3999 5.36265 6.32952 5.13064 6.19767 4.9333C6.06581 4.73596 5.87839 4.58216 5.65912 4.49133C5.43985 4.40051 5.19857 4.37674 4.96579 4.42305C4.73302 4.46935 4.5192 4.58364 4.35137 4.75146C4.18355 4.91928 4.06926 5.1331 4.02296 5.36588C3.97666 5.59866 4.00042 5.83994 4.09125 6.05921C4.18207 6.27848 4.33588 6.46589 4.53322 6.59775C4.73056 6.72961 4.96256 6.79999 5.1999 6.79999H6.3999V5.59999Z" fill="white"/>
</svg>
