<svg width="16" height="21" viewBox="0 0 16 21" fill="none" xmlns="http://www.w3.org/2000/svg">
<path d="M11.207 1.29202L15.207 5.28702C15.3793 5.45909 15.4829 5.68812 15.4984 5.93115C15.5139 6.17418 15.4401 6.4145 15.291 6.60702L15.208 6.70102L11.208 10.707C11.0285 10.8883 10.7864 10.9941 10.5315 11.0027C10.2765 11.0114 10.0278 10.9222 9.83642 10.7536C9.64501 10.5849 9.5253 10.3494 9.5018 10.0954C9.47829 9.84136 9.55278 9.58794 9.71 9.38702L9.793 9.29302L12.083 7.00002H1.5C1.25489 7.00023 1.01825 6.91042 0.835001 6.74764C0.651756 6.58486 0.534677 6.36044 0.506 6.11702L0.5 6.00002C0.500032 5.75509 0.589956 5.51868 0.752715 5.33565C0.915474 5.15261 1.13975 5.03568 1.383 5.00702L1.5 5.00002H12.09L9.794 2.70702C9.62168 2.53496 9.51806 2.30592 9.50259 2.06289C9.48713 1.81986 9.56088 1.57954 9.71 1.38702L9.793 1.29202C9.96507 1.1197 10.1941 1.01608 10.4371 1.00062C10.6802 0.985151 10.9205 1.0589 11.113 1.20802L11.207 1.29202L15.207 5.28702L11.207 1.29202ZM15.49 15.883L15.497 16C15.497 16.245 15.407 16.4814 15.2443 16.6644C15.0815 16.8474 14.8573 16.9644 14.614 16.993L14.497 17H3.913L6.207 19.293C6.37932 19.4651 6.48294 19.6941 6.4984 19.9371C6.51387 20.1802 6.44012 20.4205 6.291 20.613L6.208 20.707C6.03593 20.8793 5.8069 20.983 5.56387 20.9984C5.32084 21.0139 5.08052 20.9401 4.888 20.791L4.793 20.707L0.793 16.711C0.620824 16.5388 0.517392 16.3097 0.502111 16.0667C0.48683 15.8237 0.560749 15.5834 0.71 15.391L0.793 15.297L4.793 11.293C4.97254 11.1118 5.21457 11.006 5.46955 10.9973C5.72453 10.9887 5.97317 11.0778 6.16458 11.2465C6.35599 11.4152 6.4757 11.6506 6.4992 11.9046C6.52271 12.1587 6.44822 12.4121 6.291 12.613L6.208 12.707L3.918 15H14.497C14.7419 15.0001 14.9783 15.09 15.1614 15.2527C15.3444 15.4155 15.4613 15.6398 15.49 15.883L15.497 16L15.49 15.883Z" fill="white"/>
</svg>
