<svg width="19" height="18" viewBox="0 0 19 18" fill="none" xmlns="http://www.w3.org/2000/svg">
<path d="M0 2V14.75C0 15.612 0.34241 16.4386 0.951903 17.0481C1.5614 17.6576 2.38805 18 3.25 18H15.25C16.112 18 16.9386 17.6576 17.5481 17.0481C18.1576 16.4386 18.5 15.612 18.5 14.75V6.25C18.5 5.51838 18.2532 4.80815 17.7995 4.23417C17.3458 3.66019 16.7118 3.25601 16 3.087V2.25C16 1.95453 15.9418 1.66194 15.8287 1.38896C15.7157 1.11598 15.5499 0.867941 15.341 0.65901C15.1321 0.450078 14.884 0.284344 14.611 0.171271C14.3381 0.058198 14.0455 0 13.75 0H2.25C1.69656 1.67206e-05 1.16255 0.204007 0.750043 0.572972C0.33754 0.941936 0.075493 1.44999 0.0139999 2H0ZM2.25 3C2.05109 3 1.86032 2.92098 1.71967 2.78033C1.57902 2.63968 1.5 2.44891 1.5 2.25C1.5 2.05109 1.57902 1.86032 1.71967 1.71967C1.86032 1.57902 2.05109 1.5 2.25 1.5H13.75C13.9489 1.5 14.1397 1.57902 14.2803 1.71967C14.421 1.86032 14.5 2.05109 14.5 2.25V3H2.25ZM13.25 10H15.25C15.4489 10 15.6397 10.079 15.7803 10.2197C15.921 10.3603 16 10.5511 16 10.75C16 10.9489 15.921 11.1397 15.7803 11.2803C15.6397 11.421 15.4489 11.5 15.25 11.5H13.25C13.0511 11.5 12.8603 11.421 12.7197 11.2803C12.579 11.1397 12.5 10.9489 12.5 10.75C12.5 10.5511 12.579 10.3603 12.7197 10.2197C12.8603 10.079 13.0511 10 13.25 10Z" fill="white"/>
</svg>
