<svg width="20" height="19" viewBox="0 0 20 19" fill="none" xmlns="http://www.w3.org/2000/svg">
<path d="M1.5 11L11.5 11.001C11.8729 11.001 12.2324 11.1399 12.5084 11.3906C12.7844 11.6413 12.9572 11.9858 12.993 12.357L13 12.5V14.5C12.999 18 9.284 19 6.5 19C3.778 19 0.165 18.044 0.00500011 14.73L0 14.5V12.5C1.78986e-05 12.1271 0.13892 11.7676 0.389619 11.4916C0.640318 11.2156 0.98484 11.0428 1.356 11.007L1.5 11ZM13.488 11H18.5C18.8727 11 19.2321 11.1388 19.5081 11.3892C19.7841 11.6397 19.957 11.984 19.993 12.355L20 12.5V14C19.999 17.062 17.142 18 15 18C14.2745 18.0017 13.5529 17.8931 12.86 17.678C13.513 16.928 13.936 15.975 13.993 14.78L14 14.5V12.5C14 12.006 13.85 11.549 13.601 11.162L13.488 11H18.5H13.488ZM6.5 0C7.69347 0 8.83807 0.474106 9.68198 1.31802C10.5259 2.16193 11 3.30653 11 4.5C11 5.69347 10.5259 6.83807 9.68198 7.68198C8.83807 8.52589 7.69347 9 6.5 9C5.30653 9 4.16193 8.52589 3.31802 7.68198C2.47411 6.83807 2 5.69347 2 4.5C2 3.30653 2.47411 2.16193 3.31802 1.31802C4.16193 0.474106 5.30653 0 6.5 0ZM15.5 2C16.4283 2 17.3185 2.36875 17.9749 3.02513C18.6313 3.6815 19 4.57174 19 5.5C19 6.42826 18.6313 7.3185 17.9749 7.97487C17.3185 8.63125 16.4283 9 15.5 9C14.5717 9 13.6815 8.63125 13.0251 7.97487C12.3687 7.3185 12 6.42826 12 5.5C12 4.57174 12.3687 3.6815 13.0251 3.02513C13.6815 2.36875 14.5717 2 15.5 2Z" fill="white"/>
</svg>
