<svg width="18" height="20" viewBox="0 0 18 20" fill="none" xmlns="http://www.w3.org/2000/svg">
<path d="M7.55 0.533014C7.95577 0.191036 8.46935 0.003479 9 0.003479C9.53065 0.003479 10.0442 0.191036 10.45 0.533014L17.2 6.22801C17.708 6.65501 18 7.28401 18 7.94801V17.75C18 18.2141 17.8156 18.6593 17.4874 18.9874C17.1592 19.3156 16.7141 19.5 16.25 19.5H13.25C12.7859 19.5 12.3408 19.3156 12.0126 18.9874C11.6844 18.6593 11.5 18.2141 11.5 17.75V12.75C11.5 12.5511 11.421 12.3603 11.2803 12.2197C11.1397 12.079 10.9489 12 10.75 12H7.25C7.05109 12 6.86032 12.079 6.71967 12.2197C6.57902 12.3603 6.5 12.5511 6.5 12.75V17.75C6.5 18.2141 6.31563 18.6593 5.98744 18.9874C5.65925 19.3156 5.21413 19.5 4.75 19.5H1.75C1.52019 19.5 1.29262 19.4547 1.0803 19.3668C0.867984 19.2789 0.675066 19.15 0.512563 18.9874C0.350061 18.8249 0.221157 18.632 0.133211 18.4197C0.0452652 18.2074 0 17.9798 0 17.75V7.94701C0 7.28401 0.292 6.65501 0.8 6.22701L7.55 0.533014Z" fill="white"/>
</svg>
