<svg width="26" height="22" viewBox="0 0 26 22" fill="none" xmlns="http://www.w3.org/2000/svg">
<path d="M4.66675 21V2.75333C4.66663 2.36554 4.79532 1.98869 5.03261 1.68198C5.2699 1.37526 5.60235 1.15604 5.97774 1.05876C6.35314 0.961481 6.75021 0.991643 7.1066 1.14451C7.46299 1.29738 7.75851 1.56429 7.94675 1.90333L18.0534 20.0967C18.2417 20.4357 18.5372 20.7026 18.8936 20.8555C19.25 21.0084 19.647 21.0385 20.0224 20.9412C20.3978 20.844 20.7303 20.6247 20.9675 20.318C21.2048 20.0113 21.3335 19.6345 21.3334 19.2467V1" stroke="#2F6114" stroke-width="2" stroke-linecap="round" stroke-linejoin="round"/>
<path d="M1.33337 7.66669H24.6667" stroke="#2F6114" stroke-width="2" stroke-linecap="round" stroke-linejoin="round"/>
<path d="M1.33337 14.3333H24.6667" stroke="#2F6114" stroke-width="2" stroke-linecap="round" stroke-linejoin="round"/>
</svg>
