<svg width="24" height="27" viewBox="0 0 24 27" fill="none" xmlns="http://www.w3.org/2000/svg">
<path d="M8.05606 23.3374H15.9441C15.7864 24.2694 15.3039 25.1154 14.5819 25.7256C13.86 26.3357 12.9453 26.6704 12.0001 26.6704C11.0548 26.6704 10.1401 26.3357 9.41819 25.7256C8.69624 25.1154 8.21367 24.2694 8.05606 23.3374ZM12.0001 0.670715C14.6522 0.670715 17.1958 1.72428 19.0711 3.59965C20.9465 5.47501 22.0001 8.01855 22.0001 10.6707V16.004L23.8907 20.2174C23.9767 20.4101 24.0131 20.6212 23.9968 20.8316C23.9804 21.0419 23.9118 21.2449 23.7971 21.422C23.6824 21.5991 23.5252 21.7447 23.3399 21.8457C23.1546 21.9466 22.9471 21.9997 22.7361 22H1.26939C1.0581 22 0.850175 21.9471 0.664547 21.8462C0.47892 21.7453 0.321489 21.5995 0.206589 21.4222C0.0916896 21.2449 0.0229722 21.0416 0.00669446 20.831C-0.00958328 20.6203 0.0270958 20.4089 0.113392 20.216L2.00006 16.0027V10.6534L2.00673 10.32C2.09793 7.73052 3.19072 5.27749 5.05486 3.47777C6.91899 1.67805 9.40892 0.67217 12.0001 0.672049V0.670715Z" fill="#2F6114"/>
</svg>
