<svg width="28" height="28" viewBox="0 0 28 28" fill="none" xmlns="http://www.w3.org/2000/svg">
<path d="M14 27.3334C6.63602 27.3334 0.666687 21.364 0.666687 14C0.666687 6.63602 6.63602 0.666687 14 0.666687C21.364 0.666687 27.3334 6.63602 27.3334 14C27.3334 21.364 21.364 27.3334 14 27.3334ZM20.6667 16C20.6667 15.4696 20.456 14.9609 20.0809 14.5858C19.7058 14.2107 19.1971 14 18.6667 14H9.33335C8.80292 14 8.29421 14.2107 7.91914 14.5858C7.54407 14.9609 7.33335 15.4696 7.33335 16V16.6667C7.33335 19.2947 9.81335 22 14 22C18.1867 22 20.6667 19.2947 20.6667 16.6667V16ZM17.6667 9.00002C17.6667 8.02756 17.2804 7.09493 16.5927 6.4073C15.9051 5.71966 14.9725 5.33335 14 5.33335C13.0276 5.33335 12.0949 5.71966 11.4073 6.4073C10.7197 7.09493 10.3334 8.02756 10.3334 9.00002C10.3334 9.97248 10.7197 10.9051 11.4073 11.5927C12.0949 12.2804 13.0276 12.6667 14 12.6667C14.9725 12.6667 15.9051 12.2804 16.5927 11.5927C17.2804 10.9051 17.6667 9.97248 17.6667 9.00002Z" fill="#2F6114"/>
</svg>
