<svg width="141" height="96" viewBox="0 0 141 96" fill="none" xmlns="http://www.w3.org/2000/svg">
<path d="M120.34 50.2944C120.509 48.5264 120.412 46.9848 120.063 45.6573C119.714 44.3299 119.136 43.2285 118.336 42.3418C117.535 41.4608 116.541 40.7942 115.362 40.3535C114.182 39.9073 112.839 39.6871 111.346 39.6871C109.895 39.6927 108.589 39.9131 107.427 40.3535C106.265 40.7942 105.272 41.4143 104.447 42.2141C103.622 43.02 102.99 43.9648 102.551 45.0543C102.111 46.1499 101.889 47.3497 101.883 48.6598C101.889 50.0392 102.105 51.2854 102.551 52.4042C102.99 53.5286 103.634 54.4908 104.477 55.2907C105.32 56.0963 106.344 56.7166 107.554 57.1513C108.758 57.5803 110.136 57.8006 111.671 57.8062C112.587 57.8062 113.508 57.7078 114.441 57.5049C115.38 57.2962 116.271 56.9892 117.114 56.5776C117.956 56.166 118.691 55.6502 119.329 55.0242L116.512 52.3464C116.163 52.6823 115.723 52.9722 115.187 53.21C114.652 53.4475 114.08 53.6271 113.478 53.7546C112.876 53.8821 112.298 53.9459 111.744 53.9459C110.708 53.9401 109.805 53.7837 109.053 53.4706C108.294 53.1577 107.692 52.7289 107.247 52.1839C106.807 51.6391 106.53 51.0071 106.434 50.2943H120.341L120.34 50.2944ZM106.506 46.7819C106.729 46.0399 107.078 45.4197 107.559 44.9269C108.035 44.4342 108.613 44.0633 109.281 43.8141C109.955 43.5648 110.69 43.4431 111.491 43.4431C112.339 43.4431 113.092 43.5648 113.748 43.8141C114.404 44.0633 114.94 44.4343 115.349 44.9269C115.759 45.4198 116.012 46.0399 116.114 46.7819H106.506H106.506Z" fill="white"/>
<path d="M100.946 50.2944C101.114 48.5264 101.018 46.9848 100.669 45.6573C100.32 44.3299 99.7418 43.2285 98.9412 42.3418C98.1404 41.4608 97.147 40.7942 95.9671 40.3535C94.7872 39.9073 93.4447 39.6871 91.9517 39.6871C90.5007 39.6927 89.1945 39.9131 88.0326 40.3535C86.8706 40.7942 85.8774 41.4143 85.0526 42.2141C84.2278 43.02 83.5957 43.9648 83.1562 45.0543C82.7167 46.1499 82.4941 47.3497 82.488 48.6598C82.4941 50.0392 82.7107 51.2854 83.1562 52.4042C83.5957 53.5286 84.2399 54.4908 85.0826 55.2907C85.9254 56.0963 86.9489 56.7166 88.159 57.1513C89.363 57.5803 90.7416 57.8006 92.2769 57.8062C93.1919 57.8062 94.113 57.7078 95.046 57.5049C95.9852 57.2962 96.8761 56.9892 97.719 56.5776C98.5618 56.166 99.2963 55.6502 99.9345 55.0242L97.117 52.3464C96.7678 52.6823 96.3283 52.9722 95.7926 53.21C95.2568 53.4475 94.6849 53.6271 94.0828 53.7546C93.4809 53.8821 92.9029 53.9459 92.3491 53.9459C91.3136 53.9401 90.4105 53.7837 89.658 53.4706C88.8995 53.1577 88.2976 52.7289 87.852 52.1839C87.4125 51.6391 87.1356 51.0071 87.0393 50.2943H100.946L100.946 50.2944ZM87.1114 46.7819C87.3342 46.0399 87.6834 45.4197 88.1649 44.9269C88.6406 44.4342 89.2184 44.0633 89.8868 43.8141C90.5609 43.5648 91.2955 43.4431 92.0961 43.4431C92.945 43.4431 93.6974 43.5648 94.3536 43.8141C95.0099 44.0633 95.5456 44.4343 95.9549 44.9269C96.3644 45.4198 96.6173 46.0399 96.7197 46.7819H87.1114Z" fill="white"/>
<path d="M76.3137 33.0445V42.5389C76.0427 42.0925 75.6815 41.7041 75.2241 41.3624C74.7664 41.0202 74.2547 40.7303 73.7009 40.4987C73.141 40.2668 72.5871 40.0928 72.0213 39.9711C71.4614 39.8496 70.9375 39.7915 70.462 39.7915C69.1557 39.7915 67.9515 39.9828 66.85 40.3594C65.7484 40.7421 64.7911 41.3101 63.9784 42.0577C63.1656 42.8113 62.5334 43.7503 62.082 44.8689C61.6306 45.9877 61.4018 47.286 61.3958 48.7642C61.4018 50.1727 61.6366 51.4361 62.094 52.5434C62.5517 53.6503 63.1957 54.5895 64.0206 55.3603C64.8453 56.1369 65.8145 56.7225 66.9283 57.128C68.0421 57.5282 69.2521 57.7309 70.5705 57.7368C71.299 57.7425 72.0153 57.6557 72.7196 57.4816C73.4241 57.3079 74.0802 57.0179 74.6943 56.6122C75.3144 56.2124 75.8502 55.6676 76.3137 54.9893L76.6026 57.3541H80.7204V33.0444H76.3137L76.3137 33.0445ZM70.8594 43.7561C71.5577 43.7561 72.2199 43.8778 72.84 44.1155C73.4601 44.353 74.0079 44.6952 74.4835 45.1356C74.9651 45.5821 75.3384 46.1093 75.6092 46.7181C75.8801 47.3325 76.0187 48.0106 76.0247 48.7642C76.0186 49.5408 75.8801 50.2365 75.6092 50.8568C75.3384 51.4769 74.9651 52.0102 74.4835 52.4448C74.0079 52.8852 73.4601 53.2214 72.84 53.4534C72.2199 53.6853 71.5577 53.807 70.8594 53.807C70.149 53.807 69.4928 53.6795 68.8788 53.4417C68.2708 53.1982 67.7349 52.8564 67.2714 52.4099C66.8139 51.9637 66.4527 51.4305 66.1937 50.8161C65.9349 50.1957 65.8084 49.5119 65.8025 48.7642C65.8085 47.9873 65.9349 47.2919 66.1937 46.6774C66.4527 46.0572 66.8138 45.5355 67.2714 45.1009C67.735 44.6661 68.2708 44.3299 68.8788 44.1038C69.4928 43.872 70.149 43.756 70.8594 43.756V43.7561Z" fill="white"/>
<path d="M36.1523 42.5736C35.8092 41.9999 35.3455 41.5072 34.7617 41.0956C34.1777 40.6783 33.5216 40.3593 32.7871 40.1333C32.0525 39.9074 31.2821 39.7915 30.4814 39.7915C29.175 39.7857 27.9588 39.9711 26.8392 40.348C25.7135 40.7247 24.7321 41.2926 23.8893 42.0463C23.0465 42.7997 22.3903 43.7388 21.9147 44.8632C21.4452 45.9819 21.2043 47.286 21.1982 48.7642C21.2043 50.2713 21.4331 51.5928 21.8906 52.729C22.348 53.8708 22.9863 54.8214 23.811 55.5866C24.6298 56.3574 25.5991 56.9313 26.7127 57.3137C27.8265 57.6964 29.0486 57.8819 30.373 57.8761C30.8788 57.8645 31.4085 57.8008 31.9744 57.6733C32.5342 57.5457 33.0881 57.3543 33.63 57.1051C34.1718 56.8558 34.6594 56.543 35.1049 56.1719C35.5444 55.7953 35.8936 55.3547 36.1524 54.8504L36.3691 57.3544H40.5231V40.2088H36.2969L36.1524 42.5738L36.1523 42.5736ZM30.8788 43.5821C31.7456 43.5879 32.5042 43.7388 33.1544 44.0286C33.8045 44.3184 34.3464 44.7126 34.7799 45.2053C35.2133 45.6979 35.5383 46.2543 35.7551 46.8745C35.9719 47.4889 36.0802 48.1267 36.0802 48.7816C36.0802 49.4365 35.9719 50.074 35.7551 50.6886C35.5383 51.3088 35.2133 51.8593 34.7799 52.3579C34.3464 52.8504 33.8046 53.2446 33.1544 53.5345C32.5042 53.8243 31.7456 53.9749 30.8788 53.9807C30.1442 53.9807 29.458 53.859 28.8198 53.6271C28.1817 53.3895 27.6279 53.0477 27.1463 52.6012C26.6647 52.1491 26.2854 51.6042 26.0205 50.9609C25.7496 50.3118 25.611 49.5813 25.6051 48.7642C25.6111 47.9467 25.7496 47.2166 26.0205 46.5731C26.2854 45.9356 26.6647 45.3906 27.1463 44.9442C27.6279 44.5038 28.1817 44.1617 28.8198 43.9298C29.458 43.6981 30.1442 43.582 30.8788 43.582V43.5821Z" fill="white"/>
<path d="M122.072 33.0444V57.3542H126.442V33.0444H122.072Z" fill="white"/>
<path d="M60.0978 57.3542V48.3469C60.0919 46.9962 59.8932 45.8022 59.5079 44.7587C59.1225 43.7156 58.5809 42.8345 57.8944 42.1157C57.2082 41.4029 56.4075 40.8579 55.4985 40.4869C54.5833 40.116 53.6021 39.9305 52.5486 39.9305C51.4409 39.9305 50.4114 40.1451 49.4601 40.5797C48.5149 41.0087 47.5879 41.652 46.6968 42.5042L46.4079 40.1739H42.4707V57.3542H46.8414V48.5902C46.8414 47.9353 46.9557 47.3151 47.1725 46.7413C47.3892 46.1616 47.6961 45.6514 48.0996 45.211C48.5029 44.7706 48.9845 44.4228 49.5384 44.1734C50.0923 43.9243 50.7124 43.7966 51.3926 43.7908C52.3317 43.7966 53.1204 43.9995 53.7584 44.3995C54.3966 44.7993 54.8782 45.3443 55.2033 46.0341C55.5284 46.7181 55.6909 47.5007 55.6909 48.3815V57.3542H60.0976H60.0978Z" fill="white"/>
<path d="M25.964 26.9064H20.6182L13.9346 44.0151L12.446 40.307H7.1001L11.4784 49.5157H16.4268L25.964 26.9064Z" fill="white"/>
<path fill-rule="evenodd" clip-rule="evenodd" d="M11.4783 51.8979H16.5049V57.3541H11.4783V51.8979Z" fill="white"/>
</svg>
